<svg width="56" height="56" viewBox="0 0 56 56" fill="none" xmlns="http://www.w3.org/2000/svg">
<rect width="56" height="56" fill="white"/>
<path d="M38.9796 35.9976H36.5308V41.9898H38.9796V35.9976Z" fill="#111111"/>
<path d="M36.5309 33.5645H34.0981V35.9973H36.5309V33.5645Z" fill="#111111"/>
<path d="M34.0982 32.1821H31.6494V37.0637H24.335V32.1821H21.9022V41.9454H19.4534V44.3782H21.9022H26.7838H29.2166H34.0982H36.531V41.9454H34.0982V32.1821Z" fill="#111111"/>
<path d="M34.0982 31.1318H31.6494V33.5646H34.0982V31.1318Z" fill="#111111"/>
<path d="M34.0982 26.25H31.6494V28.6828H34.0982V26.25Z" fill="#111111"/>
<path d="M29.2165 33.5645H26.7837V40.8789H29.2165V33.5645Z" fill="#111111"/>
<path d="M31.6491 28.6831H24.3347V31.1319H31.6491V28.6831Z" fill="#111111"/>
<path d="M24.3351 31.1318H21.9023V33.5646H24.3351V31.1318Z" fill="#111111"/>
<path d="M24.3351 26.25H21.9023V28.6828H24.3351V26.25Z" fill="#111111"/>
<path d="M21.9022 33.5645H19.4534V35.9973H21.9022V33.5645Z" fill="#111111"/>
<path d="M24.335 21.3688V18.936H31.6494V21.3688H34.0982V26.2504H36.531V16.4872H34.0982V14.0544H31.6494V11.6216H24.335V14.0544H21.9022V16.4872H19.4534V26.2504H21.9022V21.3688H24.335Z" fill="#111111"/>
<path d="M19.4533 35.9976H17.0205V41.9898H19.4533V35.9976Z" fill="#111111"/>
</svg>
