<svg width="32" height="32" viewBox="0 0 32 32" fill="none" xmlns="http://www.w3.org/2000/svg">
<path d="M11.6667 5C7 5 7 5 7 9.32954V25.5652C7 26.3423 7.83417 26.886 8.60417 26.58L16.3333 23.5019L24.0264 26.58C24.7964 26.886 25.6667 26.3423 25.6667 25.5652V9.32954C25.6667 5 25.6667 5 21 5H11.6667ZM11.6667 7.16472H21C23.3334 7.16472 23.3334 7.16472 23.3334 9.32954V23.9416L16.7708 21.3372C16.4768 21.2205 16.1525 21.2205 15.8597 21.3372L9.33334 23.9416V9.32954C9.33334 7.7625 9.33334 7.16472 11.6667 7.16472Z" fill="#111111"/>
</svg>
