<svg width="75" height="75" viewBox="0 0 75 75" fill="none" xmlns="http://www.w3.org/2000/svg">
<rect width="75" height="75" fill="#F6F6F6"/>
<g clip-path="url(#clip0_1334_3514)">
<path d="M27.001 48.1654L33.5791 48.431L40.3103 48.3377L47.0555 48.4381L47.0903 44.1753L40.3173 44.3834L33.586 44.0748L26.6738 43.9385L27.001 48.1654Z" fill="#D9D9D9"/>
<path d="M45.9144 31.2653L46.8472 27.9929L39.9837 27.957L32.9184 27.7776L25.9365 27.6699L27.4958 35.4421L30.0992 42.9845L36.4406 43.4797L42.9352 43.329L43.6312 39.6905L49.4367 39.7623L50.9681 31.1003L45.9075 31.2582L45.9144 31.2653ZM46.7985 36.4755L44.3621 36.5185L44.919 34.3153L47.056 34.4876L46.7985 36.4826V36.4755Z" fill="#D9D9D9"/>
</g>
<defs>
<clipPath id="clip0_1334_3514">
<rect width="25.3378" height="20.8333" fill="white" transform="translate(25.8447 27.6045)"/>
</clipPath>
</defs>
</svg>
