<svg width="56" height="56" viewBox="0 0 56 56" fill="none" xmlns="http://www.w3.org/2000/svg">
<rect width="56" height="56" fill="white"/>
<path d="M42.3249 16.5698H40.8049V24.1898H42.3249V16.5698Z" fill="#111111"/>
<path d="M40.8049 24.1899H39.2849V25.7099H40.8049V24.1899Z" fill="#111111"/>
<path d="M40.8049 15.0498H39.2849V16.5698H40.8049V15.0498Z" fill="#111111"/>
<path d="M39.2849 25.71H37.7549V27.24H39.2849V25.71Z" fill="#111111"/>
<path d="M37.7551 27.2402H36.2351V28.7602H37.7551V27.2402Z" fill="#111111"/>
<path d="M36.2351 15.0498H19.475V16.5698H16.425V19.6198H19.475V21.1398H22.515V22.6698H33.185V21.1398H36.2351V19.6198H39.285V16.5698H36.2351V15.0498Z" fill="#111111"/>
<path d="M39.2851 13.52H36.2351V15.05H39.2851V13.52Z" fill="#111111"/>
<path d="M36.2351 28.7598H34.7051V30.2898H36.2351V28.7598Z" fill="#111111"/>
<path d="M34.7051 30.29H33.1851V31.81H34.7051V30.29Z" fill="#111111"/>
<path d="M33.185 31.8101H31.665V33.3301H33.185V31.8101Z" fill="#111111"/>
<path d="M31.665 33.3301H30.135V40.9501H31.665V33.3301Z" fill="#111111"/>
<path d="M30.135 40.9502H28.615V42.4802H30.135V40.9502Z" fill="#111111"/>
<path d="M28.6149 42.48H25.5649V44H28.6149V42.48Z" fill="#111111"/>
<path d="M25.5649 33.3301H24.0449V42.4801H25.5649V33.3301Z" fill="#111111"/>
<path d="M24.0449 31.8101H22.5149V33.3301H24.0449V31.8101Z" fill="#111111"/>
<path d="M22.5151 30.29H20.9951V31.81H22.5151V30.29Z" fill="#111111"/>
<path d="M36.2351 12H19.4751V13.52H36.2351V12Z" fill="#111111"/>
<path d="M20.9951 28.7598H19.4751V30.2898H20.9951V28.7598Z" fill="#111111"/>
<path d="M19.4751 27.2402H17.9451V28.7602H19.4751V27.2402Z" fill="#111111"/>
<path d="M19.475 13.52H16.425V15.05H19.475V13.52Z" fill="#111111"/>
<path d="M17.945 25.71H16.425V27.24H17.945V25.71Z" fill="#111111"/>
<path d="M16.425 24.1899H14.905V25.7099H16.425V24.1899Z" fill="#111111"/>
<path d="M16.425 15.0498H14.905V16.5698H16.425V15.0498Z" fill="#111111"/>
<path d="M14.905 16.5698H13.375V24.1898H14.905V16.5698Z" fill="#111111"/>
</svg>
