<svg width="56" height="56" viewBox="0 0 56 56" fill="none" xmlns="http://www.w3.org/2000/svg">
<rect width="56" height="56" fill="white"/>
<g clip-path="url(#clip0_198_5348)">
<path d="M44.6751 23.3535H43.0806V28.1164H44.6751V23.3535Z" fill="#111111"/>
<path d="M43.0805 28.1167H41.4963V31.2954H43.0805V28.1167Z" fill="#111111"/>
<path d="M43.0806 21.7695H39.9019V23.3537H43.0806V21.7695Z" fill="#111111"/>
<path d="M41.4964 31.2954H39.9019V32.8796H41.4964V31.2954Z" fill="#111111"/>
<path d="M39.9018 40.8208H38.3176V42.4154H39.9018V40.8208Z" fill="#111111"/>
<path d="M38.3175 24.9378H39.9017V23.3537H38.3175V21.7695H36.7334V34.4739H39.9017V32.8794H38.3175V24.9378Z" fill="#111111"/>
<path d="M38.3177 42.4155H12.9089V43.9997H38.3177V42.4155Z" fill="#111111"/>
<path d="M36.7335 34.4741H35.1389V37.6528H36.7335V34.4741Z" fill="#111111"/>
<path d="M33.5549 39.237H17.6718V37.6528H16.0876V39.237H12.9089V40.8211H38.3177V39.237H35.139V37.6528H33.5549V39.237Z" fill="#111111"/>
<path d="M31.9708 15.4121H30.3762V17.0067H31.9708V15.4121Z" fill="#111111"/>
<path d="M30.3761 17.0068H28.792V18.591H30.3761V17.0068Z" fill="#111111"/>
<path d="M30.3761 13.8281H28.792V15.4123H30.3761V13.8281Z" fill="#111111"/>
<path d="M30.3761 10.6494H28.792V12.2336H30.3761V10.6494Z" fill="#111111"/>
<path d="M28.7918 12.2334H27.1973V13.828H28.7918V12.2334Z" fill="#111111"/>
<path d="M25.6132 15.4121H24.0291V17.0067H25.6132V15.4121Z" fill="#111111"/>
<path d="M24.0291 17.0068H22.4346V18.591H24.0291V17.0068Z" fill="#111111"/>
<path d="M24.0291 13.8281H22.4346V15.4123H24.0291V13.8281Z" fill="#111111"/>
<path d="M24.0291 10.6494H22.4346V12.2336H24.0291V10.6494Z" fill="#111111"/>
<path d="M22.4345 12.2334H20.8503V13.828H22.4345V12.2334Z" fill="#111111"/>
<path d="M19.2558 21.7694V26.5322H17.6716V31.2951H19.2558V32.8792H22.4345V31.2951H24.029V26.5322H22.4345V29.7109H20.8503V26.5322H22.4345V24.9377H20.8503V21.7694H36.7334V20.1748H14.4929V21.7694H19.2558Z" fill="#111111"/>
<path d="M16.0875 34.4741H14.4929V37.6528H16.0875V34.4741Z" fill="#111111"/>
<path d="M14.4931 21.7695H12.9089V34.4739H14.4931V21.7695Z" fill="#111111"/>
<path d="M12.9088 40.8208H11.3247V42.4154H12.9088V40.8208Z" fill="#111111"/>
</g>
<defs>
<clipPath id="clip0_198_5348">
<rect width="33.3503" height="33.3503" fill="white" transform="translate(11.3247 10.6494)"/>
</clipPath>
</defs>
</svg>
