<svg width="56" height="56" viewBox="0 0 56 56" fill="none" xmlns="http://www.w3.org/2000/svg">
<rect width="56" height="56" fill="white"/>
<path d="M45.7474 27.062H43.8838V28.9379H45.7474V27.062Z" fill="#111111"/>
<path d="M43.8837 28.938H42.0078V30.8016H43.8837V28.938Z" fill="#111111"/>
<path d="M43.8837 25.1982H42.0078V27.0619H43.8837V25.1982Z" fill="#111111"/>
<path d="M42.0079 30.8013H40.1443V32.6772H42.0079V30.8013Z" fill="#111111"/>
<path d="M42.0079 23.3345H40.1443V25.1981H42.0079V23.3345Z" fill="#111111"/>
<path d="M38.2807 38.2804H32.6775V40.1441H40.1443V32.6772H38.2807V38.2804Z" fill="#111111"/>
<path d="M34.541 27.0619H30.8015V28.9378H34.541V30.8014H30.8015V32.6773H32.6774V34.5409H34.541V32.6773H36.4047V25.1982H34.541V27.0619Z" fill="#111111"/>
<path d="M38.2807 17.7314V23.3345H40.1443V15.8555H32.6775V17.7314H38.2807Z" fill="#111111"/>
<path d="M32.6774 40.144H30.8015V42.0199H32.6774V40.144Z" fill="#111111"/>
<path d="M34.541 23.3345H30.8015V25.1981H34.541V23.3345Z" fill="#111111"/>
<path d="M32.6774 13.9922H30.8015V15.8558H32.6774V13.9922Z" fill="#111111"/>
<path d="M30.8014 42.02H28.9377V43.8837H30.8014V42.02Z" fill="#111111"/>
<path d="M32.6773 34.541H25.1982V36.4047H32.6773V34.541Z" fill="#111111"/>
<path d="M30.8014 19.5952H28.9377V23.3347H30.8014V19.5952Z" fill="#111111"/>
<path d="M30.8014 12.1162H28.9377V13.9921H30.8014V12.1162Z" fill="#111111"/>
<path d="M28.9379 43.8838H27.062V45.7474H28.9379V43.8838Z" fill="#111111"/>
<path d="M28.9379 17.7314H27.062V19.5951H28.9379V17.7314Z" fill="#111111"/>
<path d="M28.9379 10.2524H27.062V12.1161H28.9379V10.2524Z" fill="#111111"/>
<path d="M27.0619 42.02H25.1982V43.8837H27.0619V42.02Z" fill="#111111"/>
<path d="M27.0619 19.5952H25.1982V23.3347H27.0619V19.5952Z" fill="#111111"/>
<path d="M27.0619 12.1162H25.1982V13.9921H27.0619V12.1162Z" fill="#111111"/>
<path d="M25.1984 40.144H23.3347V42.0199H25.1984V40.144Z" fill="#111111"/>
<path d="M23.3347 32.6772V25.1981H25.1984V23.3345H19.5952V34.5408H25.1984V32.6772H23.3347Z" fill="#111111"/>
<path d="M25.1984 13.9922H23.3347V15.8558H25.1984V13.9922Z" fill="#111111"/>
<path d="M17.7314 38.2804V32.6772H15.8555V40.1441H23.3345V38.2804H17.7314Z" fill="#111111"/>
<path d="M17.7314 17.7314H23.3345V15.8555H15.8555V23.3345H17.7314V17.7314Z" fill="#111111"/>
<path d="M15.8556 30.8013H13.9919V32.6772H15.8556V30.8013Z" fill="#111111"/>
<path d="M15.8556 23.3345H13.9919V25.1981H15.8556V23.3345Z" fill="#111111"/>
<path d="M13.9921 28.938H12.1162V30.8016H13.9921V28.938Z" fill="#111111"/>
<path d="M13.9921 25.1982H12.1162V27.0619H13.9921V25.1982Z" fill="#111111"/>
<path d="M12.1161 27.062H10.2524V28.9379H12.1161V27.062Z" fill="#111111"/>
</svg>
