<svg width="25" height="25" viewBox="0 0 25 25" fill="none" xmlns="http://www.w3.org/2000/svg">
<g clip-path="url(#clip0_1119_8434)">
<path d="M8.91808 1V1.10064L10.6502 1.11248L12.3004 1.63938L13.9389 2.30245L15.0566 3.68777L16.2386 4.94878L17.2276 6.41107L17.8069 8.11017L18 9.89807L17.9298 11.5498L17.6665 13.2075L17.6723 14.8592L17.7601 14.8296L16.578 16.1912L15.3316 17.4996L14.1144 18.8317L12.6456 19.9151L11.4811 21.3004L10.2113 22.5851L8.90637 24L7.56632 22.4726L6.10338 21.2234L4.90377 19.696L3.44083 18.435L2.25878 16.9668L1.39857 15.2973L0.509103 13.6337L0.251626 11.757L0.0526658 9.89807H0L0.310143 8.16345L0.690507 6.44659L1.55072 4.91326L2.76788 3.67001L4.00845 2.45637L5.4948 1.5269L7.1801 1.03552L8.91808 1Z" fill="black"/>
<path d="M12.1569 6.83295L11.7977 7.19161L12.1569 6.83295L12.96 9.98174L12.1569 13.1358L11.7977 12.7771L12.1569 13.1358L8.9974 13.9375L5.84313 13.1358L6.20241 12.7771L5.84313 13.1358L5.04004 9.98174L5.84313 6.83295L6.20241 7.19161L5.84313 6.83295L8.9974 6.03125L12.1569 6.83295Z" fill="white"/>
</g>
<defs>
<clipPath id="clip0_1119_8434">
<rect width="18" height="23" fill="white" transform="translate(0 1)"/>
</clipPath>
</defs>
</svg>
