<svg width="25" height="25" viewBox="0 0 25 25" fill="none" xmlns="http://www.w3.org/2000/svg">
<g clip-path="url(#clip0_1119_9464)">
<path d="M13.1699 15.9735L13.7654 14.2119L17.1644 13.7873L18.1723 8.31288L15.245 8.18641L15.6756 3.99023L8.96455 4.58646L3.11009 5.48532L3.29333 7.84765L0.00878906 7.73021L0.938722 13.3989L4.46605 13.6563L5.15778 15.7702L7.57194 16.6149L7.5582 18.2726L7.1963 18.2636L3.23378 18.241L3.17423 21.2899L7.20088 21.3215L11.168 21.1363L15.1809 21.2763L15.071 18.3132L11.1634 18.3539L10.5221 18.3403L10.4534 16.7775L13.1653 15.9735H13.1699ZM15.5886 10.6481L15.3458 11.294L14.6907 11.4611L14.9977 10.5487V10.5397L15.584 10.6481H15.5886ZM2.4825 11.8044L2.45502 9.81249L3.43992 9.65891L3.52696 10.7701L3.78349 11.556L2.4825 11.7999V11.8044Z" fill="black"/>
</g>
<defs>
<clipPath id="clip0_1119_9464">
<rect width="19" height="19" fill="white" transform="translate(0 3)"/>
</clipPath>
</defs>
</svg>
