<svg width="25" height="25" viewBox="0 0 25 25" fill="none" xmlns="http://www.w3.org/2000/svg">
<g clip-path="url(#clip0_1119_9461)">
<path d="M0.912539 20.2907L6.10485 20.4947L11.418 20.423L16.7422 20.5002L16.7697 17.2263L11.4235 17.3861L6.11034 17.1492L0.654297 17.0444L0.912539 20.2907Z" fill="black"/>
<path d="M15.8415 7.31109L16.5778 4.79782L11.1602 4.77027L5.58325 4.63248L0.0722656 4.5498L1.30303 10.5188L3.35798 16.3114L8.36347 16.6917L13.4898 16.576L14.0393 13.7816L18.6217 13.8368L19.8305 7.18432L15.836 7.30557L15.8415 7.31109ZM16.5393 11.3125L14.6162 11.3455L15.0558 9.65349L16.7426 9.78577L16.5393 11.318V11.3125Z" fill="black"/>
</g>
<defs>
<clipPath id="clip0_1119_9461">
<rect width="20" height="16" fill="white" transform="translate(0 4.5)"/>
</clipPath>
</defs>
</svg>
