<svg width="25" height="25" viewBox="0 0 25 25" fill="none" xmlns="http://www.w3.org/2000/svg">
<g clip-path="url(#clip0_1119_9462)">
<path d="M19.9256 6.33839L19.876 6.33343L16.8063 11.109L13.5086 15.7656L6.60055 15.7706L3.32755 11.0495L0.223159 6.24417L0 6.32847L0.16365 6.24417L4.84007 4.68701L9.9876 4.78619L15.1302 4.72173L20 6.24417L19.9256 6.33839Z" fill="black"/>
<path d="M15.9479 16.2369V18.1957L15.9925 20.2042L13.5427 20.2389L11.1772 20.3133L8.80681 20.0356L6.43636 20.1546L4.09567 20.0653L3.90723 18.1957L4.02129 16.2319L6.4314 16.2121L8.79689 16.2567L11.1673 16.5097L13.5378 16.1675L15.9479 16.2369Z" fill="black"/>
</g>
<defs>
<clipPath id="clip0_1119_9462">
<rect width="20" height="15.6261" fill="white" transform="translate(0 4.68701)"/>
</clipPath>
</defs>
</svg>
