<svg width="72" height="41" viewBox="0 0 72 41" fill="none" xmlns="http://www.w3.org/2000/svg">
<path d="M44 4H28V21L36 17.5128L44 21V4Z" stroke="#C3C3C3" stroke-width="1.5"/>
<path d="M30.9356 33.918V34.8633H27.0899V35.7979H29.8506V38.9561H28.6582V36.7646H23.0616V35.7979H25.9082V34.8633H22.084V33.918H30.9356ZM24.4151 29.4814V30.4482H28.6045V29.4814H29.7862V33.1982H23.2334V29.4814H24.4151ZM24.4151 32.2422H28.6045V31.3398H24.4151V32.2422ZM36.5103 30.1904V36.5498H31.9126V30.1904H36.5103ZM33.0835 31.125V35.5938H35.3179V31.125H33.0835ZM39.1743 29.2451V32.9727H40.6675V33.9824H39.1743V38.9561H37.9819V29.2451H39.1743ZM48.9277 30.1475V31.3076C48.9277 32.7148 48.9277 34.0576 48.498 36.1094L47.3056 36.002C47.5044 35.1533 47.6172 34.4067 47.6816 33.7139L41.956 34.0146L41.7949 33.0479L47.7353 32.8223C47.7568 32.3013 47.7568 31.8018 47.7568 31.3076V31.1143H42.0849V30.1475H48.9277ZM49.9052 36.7432V37.7207H41.0537V36.7432H49.9052Z" fill="#B1B1B1"/>
</svg>
