<svg width="72" height="41" viewBox="0 0 72 41" fill="none" xmlns="http://www.w3.org/2000/svg">
<path d="M42 5H26V20H42V5Z" stroke="#C3C3C3" stroke-width="1.5" stroke-miterlimit="10"/>
<path d="M43 8H42V16H43C45.2091 16 47 14.2091 47 12C47 9.79086 45.2091 8 43 8Z" stroke="#C3C3C3" stroke-width="1.5" stroke-miterlimit="10"/>
<path d="M21.0962 30.2012C21.0962 33.1338 20.2906 35.6475 16.7134 37.4307L16.0582 36.5283C17.7393 35.6958 18.7383 34.729 19.3023 33.5742L16.2837 33.8643L16.1334 32.833L19.6675 32.6074C19.7911 32.1562 19.8663 31.6782 19.9039 31.168H16.6382V30.2012H21.0962ZM23.6529 29.2451V33.0479H25.0923V34.0254H23.6529V38.9346H22.4605V29.2451H23.6529ZM33.9649 29.2451V38.9561H32.8262V29.2451H33.9649ZM32.0313 29.4492V38.4727H30.8926V33.8965H29.8184V32.833H30.8926V29.4492H32.0313ZM30.0655 30.3945V31.3613H29.378V35.5508C29.6841 35.5239 29.9741 35.4917 30.2481 35.4541L30.3233 36.3242C28.7979 36.6357 26.7998 36.668 25.5645 36.668L25.4248 35.6797C25.688 35.6797 25.9834 35.6797 26.3057 35.6689V31.3613H25.6182V30.3945H30.0655ZM27.3799 35.6475C27.6753 35.6475 27.9815 35.6367 28.2823 35.6152V31.3613H27.3799V35.6475ZM41.0967 31.2324C41.0967 32.2744 41.8808 33.2949 43.4062 33.7031L42.8691 34.6162C41.7412 34.3208 40.9463 33.6763 40.5166 32.8438C40.0815 33.7568 39.2651 34.4658 38.1211 34.7988L37.5517 33.8535C39.0879 33.4453 39.9043 32.3711 39.9043 31.2324V31.2002H37.874V30.2549H39.9043V29.2021H41.1074V30.2549H43.1269V31.2002H41.0967V31.2324ZM45.2646 29.2451V31.501H46.6181V32.4893H45.2646V34.8096H44.0722V29.2451H45.2646ZM45.4043 35.2607V36.2168H42.8369C43.0625 37.0225 44.1528 37.7744 45.8125 38.0107L45.3828 38.9238C43.8628 38.709 42.7134 38.0591 42.1494 37.1729C41.5908 38.0537 40.4521 38.6875 38.9482 38.9023L38.5078 38C40.1728 37.769 41.2524 37.0439 41.4834 36.2168H38.9052V35.2607H45.4043ZM55.2006 29.2451V38.9561H53.9975V29.2451H55.2006ZM52.3002 30.2764C52.3002 33.166 51.1831 35.626 47.7778 37.2373L47.1547 36.2812C49.6953 35.0728 50.8769 33.4292 51.0864 31.2217H47.6489V30.2764H52.3002Z" fill="#B1B1B1"/>
</svg>
