<svg width="72" height="41" viewBox="0 0 72 41" fill="none" xmlns="http://www.w3.org/2000/svg">
<g clip-path="url(#clip0_319_2367)">
<path d="M45.32 10.8405V21.4405H38.15V15.3905H33.54V21.4405H26.75V10.8405L36.03 2.98047L45.32 10.8405Z" stroke="#C3C3C3" stroke-width="1.5" stroke-miterlimit="10"/>
</g>
<path d="M39.3462 36.0127V38.8379H32.6108V36.0127H39.3462ZM33.7925 36.915V37.9355H38.186V36.915H33.7925ZM39.937 29.9863V30.8887H32.0093V29.9863H35.3931V29.1377H36.5854V29.9863H39.937ZM35.9839 31.1895C38.0571 31.1895 39.2173 31.6514 39.2173 32.5645C39.2173 33.3862 38.2827 33.8481 36.5854 33.9287V34.498H40.4204V35.4434H31.5688V34.498H35.3931V33.9287C33.7065 33.8535 32.7612 33.3862 32.7612 32.5645C32.7612 31.6514 33.9321 31.1895 35.9839 31.1895ZM35.9839 31.9951C34.6948 32.0059 34.0396 32.167 34.0396 32.5645C34.0396 32.9512 34.6948 33.1338 35.9839 33.1338C37.2837 33.1338 37.939 32.9512 37.939 32.5645C37.939 32.167 37.2837 32.0059 35.9839 31.9951Z" fill="#B1B1B1"/>
<defs>
<clipPath id="clip0_319_2367">
<rect width="20.07" height="20.19" fill="white" transform="translate(26 2)"/>
</clipPath>
</defs>
</svg>
