<svg fill="none" xmlns="http://www.w3.org/2000/svg">
<path d="M308.189 1.4126H334.777V9.96359H318.432V13.1257H333.664V20.6523H318.432V24.0371H335V32.5881H308.189V1.4126Z" fill="white"/>
<path d="M291.403 33.2557C288.969 33.2557 286.682 32.8697 284.545 32.0978C282.437 31.3258 280.581 30.2273 278.978 28.8021C277.404 27.3769 276.157 25.6697 275.236 23.6804C274.346 21.6911 273.9 19.494 273.9 17.089V16.9999C273.9 14.684 274.331 12.5314 275.192 10.5422C276.053 8.55286 277.255 6.83078 278.799 5.37593C280.343 3.92107 282.154 2.79282 284.233 1.99116C286.341 1.15981 288.627 0.744141 291.091 0.744141C293.793 0.744141 296.213 1.15981 298.351 1.99116C300.518 2.82251 302.448 3.98045 304.141 5.465L298.306 12.5018C297.267 11.6407 296.183 10.9727 295.055 10.4976C293.927 10.0226 292.71 9.78503 291.403 9.78503C290.394 9.78503 289.458 9.97802 288.597 10.364C287.736 10.7203 286.994 11.225 286.371 11.8782C285.747 12.5314 285.257 13.3034 284.901 14.1941C284.574 15.0849 284.411 16.0647 284.411 17.1335V17.2226C284.411 18.3212 284.589 19.3307 284.945 20.2511C285.331 21.1715 285.851 21.9583 286.504 22.6115C287.157 23.2647 287.929 23.7695 288.82 24.1258C289.741 24.4821 290.75 24.6602 291.849 24.6602C292.739 24.6602 293.452 24.6008 293.986 24.4821C294.521 24.3633 294.996 24.1851 295.411 23.9476V20.8301H290.067V14.1496H305.165V28.5794C303.473 29.9749 301.468 31.1031 299.153 31.9642C296.837 32.8252 294.254 33.2557 291.403 33.2557Z" fill="white"/>
<path d="M239.859 1.4126H249.613L260.702 15.1744V1.4126H271.035V32.5881H261.771L250.192 18.2028V32.5881H239.859V1.4126Z" fill="white"/>
<path d="M221.077 33.2116C218.761 33.2116 216.653 32.9444 214.753 32.4099C212.883 31.8458 211.279 30.9699 209.943 29.7823C208.607 28.5947 207.568 27.0804 206.826 25.2396C206.113 23.3987 205.757 21.1868 205.757 18.6037V1.4126H216.357V18.47C216.357 20.4 216.802 21.8103 217.693 22.701C218.613 23.562 219.771 23.9926 221.166 23.9926C222.592 23.9926 223.75 23.5917 224.64 22.7901C225.531 21.9587 225.976 20.5929 225.976 18.6927V1.4126H236.576V18.381C236.576 21.0532 236.205 23.3245 235.463 25.195C234.72 27.0656 233.666 28.5947 232.301 29.7823C230.964 30.9699 229.331 31.8458 227.402 32.4099C225.501 32.9444 223.393 33.2116 221.077 33.2116Z" fill="white"/>
<path d="M186.224 24.0367C187.204 24.0367 188.095 23.8437 188.897 23.4577C189.698 23.0717 190.381 22.567 190.945 21.9435C191.509 21.2903 191.94 20.548 192.237 19.7167C192.534 18.8853 192.682 18.0094 192.682 17.089V16.9999C192.682 16.0795 192.519 15.2036 192.192 14.3723C191.895 13.5112 191.465 12.7541 190.901 12.1009C190.337 11.4477 189.654 10.9281 188.852 10.5422C188.05 10.1562 187.145 9.96318 186.135 9.96318C185.156 9.96318 184.265 10.1562 183.463 10.5422C182.662 10.9281 181.979 11.4477 181.415 12.1009C180.85 12.7244 180.42 13.4519 180.123 14.2832C179.826 15.1146 179.678 15.9904 179.678 16.9109V16.9999C179.678 17.9204 179.826 18.8111 180.123 19.6721C180.45 20.5035 180.895 21.2457 181.459 21.8989C182.023 22.5521 182.706 23.0717 183.508 23.4577C184.309 23.8437 185.215 24.0367 186.224 24.0367ZM186.135 33.2557C183.73 33.2557 181.489 32.8401 179.41 32.0087C177.362 31.1774 175.565 30.0343 174.021 28.5794C172.507 27.1245 171.32 25.4173 170.459 23.4577C169.597 21.4684 169.167 19.3455 169.167 17.089V16.9999C169.167 14.7434 169.597 12.6354 170.459 10.6758C171.349 8.68647 172.552 6.96439 174.066 5.50954C175.61 4.02499 177.421 2.86704 179.499 2.0357C181.578 1.17466 183.819 0.744141 186.224 0.744141C188.629 0.744141 190.856 1.15981 192.905 1.99116C194.983 2.82251 196.78 3.96561 198.294 5.42047C199.838 6.87532 201.04 8.5974 201.901 10.5867C202.762 12.5463 203.193 14.6543 203.193 16.9109V16.9999C203.193 19.2564 202.747 21.3793 201.857 23.3686C200.996 25.3282 199.793 27.0503 198.249 28.5349C196.735 29.9897 194.939 31.1477 192.86 32.0087C190.782 32.8401 188.54 33.2557 186.135 33.2557Z" fill="white"/>
<path d="M142.525 1.4126H152.947V23.6808H167.599V32.5881H142.525V1.4126Z" fill="white"/>
<path d="M91.2031 1.41231H102.115L106.524 16.3766L111.556 1.32324H120.553L125.585 16.3766L129.994 1.41231H140.728L130.529 32.8105H121.443L115.965 17.3118L110.487 32.8105H101.402L91.2031 1.41231Z" fill="white"/>
<path d="M63.3672 1.4126H89.9554V9.96359H73.6106V13.1257H88.842V20.6523H73.6106V24.0371H90.1781V32.5881H63.3672V1.4126Z" fill="white"/>
<path d="M46.4519 16.2432C47.6989 16.2432 48.6787 15.976 49.3913 15.4416C50.1039 14.9071 50.4602 14.1649 50.4602 13.2147V13.1257C50.4602 12.1162 50.1039 11.3739 49.3913 10.8989C48.6787 10.3941 47.7138 10.1417 46.4965 10.1417H41.9537V16.2432H46.4519ZM31.5322 1.4126H46.7637C49.5546 1.4126 51.8408 1.7392 53.6223 2.3924C55.4334 3.01591 56.8883 3.87695 57.9869 4.97551C58.937 5.92562 59.6496 6.9945 60.1246 8.18213C60.5997 9.36977 60.8372 10.7652 60.8372 12.3686V12.4576C60.8372 14.7438 60.2879 16.6737 59.1893 18.2474C58.0908 19.821 56.5914 21.068 54.6912 21.9884L61.9506 32.5881H50.0594L44.1806 23.6808H44.0915H41.9537V32.5881H31.5322V1.4126Z" fill="white"/>
<path d="M15.3651 24.7051C16.4933 24.7051 17.3395 24.4973 17.9036 24.0816C18.4975 23.666 18.7944 23.1167 18.7944 22.4338V22.3447C18.7944 21.6618 18.5123 21.1125 17.9482 20.6969C17.3841 20.2812 16.5379 20.0734 15.4096 20.0734H10.1543V24.7051H15.3651ZM14.697 13.6601C16.8941 13.6601 17.9927 12.9475 17.9927 11.5224V11.4333C17.9927 10.0081 16.8793 9.29555 14.6525 9.29555H10.1543V13.6601H14.697ZM0 1.4126H17.4583C19.6257 1.4126 21.4072 1.65013 22.8026 2.12518C24.2278 2.60024 25.4006 3.29797 26.321 4.21839C26.8852 4.78252 27.3454 5.46541 27.7017 6.26707C28.0579 7.06872 28.2361 8.00399 28.2361 9.07286V9.16193C28.2361 11.0325 27.7313 12.5467 26.7219 13.7046C25.7124 14.8329 24.3614 15.6939 22.669 16.2878C24.688 16.8816 26.2913 17.7575 27.479 18.9154C28.6666 20.0734 29.2604 21.7212 29.2604 23.859V23.948C29.2604 25.195 29.0081 26.353 28.5033 27.4219C27.9986 28.4611 27.2414 29.3666 26.232 30.1386C25.2225 30.9106 23.9606 31.5192 22.4464 31.9646C20.9618 32.3803 19.2397 32.5881 17.2801 32.5881H0V1.4126Z" fill="white"/>
</svg>
