<svg viewBox="0 0 376 38" fill="none" xmlns="http://www.w3.org/2000/svg">
<path d="M345.175 1.58643H374.879V11.1394H356.618V14.672H373.635V23.0807H356.618V26.8621H375.127V36.4151H345.175V1.58643Z" fill="white"/>
<path d="M326.422 37.1606C323.702 37.1606 321.148 36.7294 318.76 35.867C316.405 35.0046 314.332 33.7773 312.541 32.1851C310.783 30.593 309.39 28.6857 308.361 26.4633C307.366 24.2409 306.869 21.7863 306.869 19.0995V19C306.869 16.4127 307.35 14.0079 308.312 11.7855C309.273 9.5631 310.617 7.63923 312.342 6.0139C314.067 4.38856 316.09 3.12809 318.412 2.2325C320.767 1.30374 323.321 0.839355 326.074 0.839355C329.093 0.839355 331.796 1.30374 334.184 2.2325C336.606 3.16126 338.762 4.4549 340.652 6.11341L334.134 13.9747C332.974 13.0128 331.763 12.2665 330.502 11.7357C329.242 11.205 327.882 10.9397 326.422 10.9397C325.295 10.9397 324.25 11.1553 323.288 11.5865C322.326 11.9845 321.497 12.5484 320.8 13.2782C320.104 14.0079 319.556 14.8703 319.158 15.8654C318.793 16.8605 318.611 17.9551 318.611 19.1493V19.2488C318.611 20.4761 318.81 21.6039 319.208 22.6321C319.639 23.6604 320.22 24.5394 320.949 25.2692C321.679 25.9989 322.542 26.5628 323.537 26.9608C324.565 27.3589 325.693 27.5579 326.92 27.5579C327.915 27.5579 328.711 27.4916 329.308 27.3589C329.905 27.2262 330.436 27.0272 330.9 26.7618V23.2789H324.93V15.8157H341.797V31.9363C339.906 33.4953 337.667 34.7558 335.08 35.7177C332.493 36.6797 329.607 37.1606 326.422 37.1606Z" fill="white"/>
<path d="M268.839 1.58643H279.735L292.124 16.9608V1.58643H303.667V36.4151H293.318L280.382 20.3441V36.4151H268.839V1.58643Z" fill="white"/>
<path d="M247.856 37.1116C245.269 37.1116 242.914 36.8131 240.791 36.216C238.701 35.5858 236.91 34.6073 235.417 33.2805C233.925 31.9537 232.764 30.262 231.934 28.2055C231.138 26.1489 230.74 23.6777 230.74 20.7919V1.58643H242.582V20.6427C242.582 22.7987 243.08 24.3743 244.075 25.3694C245.103 26.3313 246.397 26.8123 247.956 26.8123C249.548 26.8123 250.841 26.3645 251.836 25.4689C252.832 24.5402 253.329 23.0143 253.329 20.8914V1.58643H265.171V20.5432C265.171 23.5285 264.756 26.066 263.927 28.1557C263.098 30.2454 261.92 31.9537 260.394 33.2805C258.902 34.6073 257.077 35.5858 254.921 36.216C252.798 36.8131 250.443 37.1116 247.856 37.1116Z" fill="white"/>
<path d="M208.919 26.8613C210.013 26.8613 211.008 26.6457 211.904 26.2145C212.799 25.7833 213.562 25.2194 214.193 24.5228C214.823 23.7931 215.304 22.9638 215.635 22.0351C215.967 21.1063 216.133 20.1278 216.133 19.0995V19C216.133 17.9717 215.951 16.9932 215.586 16.0644C215.254 15.1025 214.773 14.2567 214.143 13.5269C213.513 12.7972 212.75 12.2167 211.854 11.7855C210.958 11.3543 209.947 11.1387 208.819 11.1387C207.724 11.1387 206.729 11.3543 205.834 11.7855C204.938 12.2167 204.175 12.7972 203.545 13.5269C202.915 14.2235 202.434 15.0362 202.102 15.9649C201.77 16.8937 201.605 17.8722 201.605 18.9005V19C201.605 20.0283 201.77 21.0234 202.102 21.9853C202.467 22.9141 202.964 23.7433 203.595 24.4731C204.225 25.2028 204.988 25.7833 205.883 26.2145C206.779 26.6457 207.791 26.8613 208.919 26.8613ZM208.819 37.1606C206.132 37.1606 203.628 36.6963 201.306 35.7675C199.017 34.8387 197.01 33.5617 195.286 31.9363C193.594 30.311 192.267 28.4037 191.305 26.2145C190.343 23.9921 189.862 21.6204 189.862 19.0995V19C189.862 16.4791 190.343 14.124 191.305 11.9348C192.3 9.71237 193.644 7.7885 195.335 6.16316C197.06 4.50465 199.084 3.21102 201.406 2.28226C203.727 1.32032 206.232 0.839355 208.919 0.839355C211.605 0.839355 214.093 1.30374 216.382 2.2325C218.704 3.16126 220.711 4.43831 222.402 6.06365C224.127 7.68899 225.47 9.61285 226.432 11.8353C227.394 14.0245 227.875 16.3796 227.875 18.9005V19C227.875 21.5209 227.378 23.8926 226.383 26.115C225.421 28.3042 224.077 30.2281 222.352 31.8866C220.661 33.5119 218.654 34.8056 216.332 35.7675C214.01 36.6963 211.506 37.1606 208.819 37.1606Z" fill="white"/>
<path d="M160.1 1.58643H171.742V26.464H188.112V36.4151H160.1V1.58643Z" fill="white"/>
<path d="M102.762 1.58584H114.952L119.878 18.3036L125.5 1.48633H135.551L141.173 18.3036L146.099 1.58584H158.09L146.696 36.6633H136.546L130.426 19.3484L124.306 36.6633H114.156L102.762 1.58584Z" fill="white"/>
<path d="M71.665 1.58643H101.369V11.1394H83.1087V14.672H100.125V23.0807H83.1087V26.8621H101.618V36.4151H71.665V1.58643Z" fill="white"/>
<path d="M52.7676 18.1549C54.1607 18.1549 55.2554 17.8564 56.0514 17.2593C56.8475 16.6622 57.2456 15.833 57.2456 14.7716V14.672C57.2456 13.5443 56.8475 12.715 56.0514 12.1843C55.2554 11.6204 54.1773 11.3384 52.8174 11.3384H47.7423V18.1549H52.7676ZM36.0996 1.58643H53.1159C56.2339 1.58643 58.788 1.9513 60.7782 2.68104C62.8016 3.37761 64.4269 4.33955 65.6542 5.56684C66.7156 6.62829 67.5117 7.82241 68.0424 9.14921C68.5732 10.476 68.8385 12.035 68.8385 13.8262V13.9257C68.8385 16.4798 68.2249 18.6359 66.9976 20.3939C65.7703 22.1519 64.0952 23.545 61.9723 24.5733L70.0824 36.4151H56.7978L50.2301 26.464H50.1306H47.7423V36.4151H36.0996V1.58643Z" fill="white"/>
<path d="M18.0381 27.6084C19.2986 27.6084 20.2439 27.3762 20.8741 26.9118C21.5375 26.4474 21.8692 25.8338 21.8692 25.0709V24.9714C21.8692 24.2085 21.5541 23.5948 20.9239 23.1304C20.2937 22.666 19.3483 22.4338 18.0879 22.4338H12.2167V27.6084H18.0381ZM17.2918 15.2691C19.7464 15.2691 20.9737 14.473 20.9737 12.8809V12.7813C20.9737 11.1892 19.7298 10.3931 17.242 10.3931H12.2167V15.2691H17.2918ZM0.872559 1.58643H20.3766C22.798 1.58643 24.7882 1.85179 26.3472 2.38251C27.9394 2.91323 29.2496 3.69273 30.2779 4.721C30.9081 5.35124 31.4222 6.11415 31.8203 7.00974C32.2183 7.90534 32.4173 8.9502 32.4173 10.1443V10.2438C32.4173 12.3335 31.8535 14.0252 30.7257 15.3189C29.5979 16.5793 28.0886 17.5413 26.198 18.2047C28.4535 18.8681 30.2447 19.8466 31.5715 21.1402C32.8983 22.4339 33.5617 24.2748 33.5617 26.663V26.7626C33.5617 28.1557 33.2798 29.4493 32.7159 30.6435C32.152 31.8044 31.3061 32.8161 30.1784 33.6785C29.0506 34.5409 27.6409 35.2209 25.9492 35.7185C24.2907 36.1829 22.3668 36.4151 20.1776 36.4151H0.872559V1.58643Z" fill="white"/>
</svg>
